<?xml version="1.0" standalone="no"?>
<!DOCTYPE svg PUBLIC "-//W3C//DTD SVG 20010904//EN"
 "http://www.w3.org/TR/2001/REC-SVG-20010904/DTD/svg10.dtd">
<svg version="1.0" xmlns="http://www.w3.org/2000/svg"
 width="300.000000pt" height="204.000000pt" viewBox="0 0 300.000000 204.000000"
 preserveAspectRatio="xMidYMid meet">
<metadata>
Created by potrace 1.10, written by Peter Selinger 2001-2011
</metadata>
<g transform="translate(0.000000,204.000000) scale(0.100000,-0.100000)"
fill="#000000" stroke="none">
<path d="M2230 1923 c-6 -16 -13 -34 -17 -41 -9 -15 -438 -17 -1059 -5 -254 4
-353 3 -358 -5 -8 -13 197 -17 916 -17 263 0 478 -4 478 -8 0 -4 -7 -18 -15
-31 -18 -28 -10 -56 16 -56 26 0 24 -16 -7 -53 -19 -23 -24 -38 -20 -59 4 -21
1 -31 -14 -40 -35 -22 -21 -88 19 -88 8 0 32 12 54 27 33 23 38 31 34 57 -3
20 3 41 19 64 29 42 30 68 4 82 -11 6 -31 21 -45 34 -23 21 -24 27 -14 50 l12
26 291 2 c430 3 476 5 476 17 0 8 -91 8 -588 -3 -147 -3 -162 -1 -156 13 4 9
9 26 11 39 8 33 -25 29 -37 -5z m37 -198 c3 -9 3 -19 -1 -22 -7 -7 -36 16 -36
28 0 15 30 10 37 -6z m-70 -142 c-8 -8 -21 -13 -28 -11 -9 3 -6 11 11 28 17
17 25 20 28 11 2 -7 -3 -20 -11 -28z"/>
<path d="M682 1888 c-9 -12 -58 -65 -108 -118 -49 -52 -125 -138 -167 -191
-105 -133 -133 -163 -141 -150 -14 21 -26 11 -26 -22 0 -18 -5 -38 -11 -44 -7
-7 -8 -17 -1 -29 5 -11 10 -76 11 -146 l1 -128 -120 0 c-79 0 -120 -4 -120
-11 0 -7 38 -10 119 -7 l119 3 12 -70 c24 -140 24 -132 1 -144 -29 -16 -26
-28 12 -45 17 -8 59 -40 92 -70 l60 -55 -202 -1 c-132 0 -204 -4 -208 -11 -5
-7 58 -10 214 -8 l220 2 43 -39 c52 -48 130 -102 258 -177 52 -30 120 -78 150
-105 l55 -49 -415 -8 c-228 -4 -442 -11 -475 -15 -63 -9 761 -3 850 6 49 5 51
4 84 -37 28 -34 32 -45 23 -59 -8 -13 -8 -22 1 -34 11 -14 16 -14 52 -1 67 24
81 20 82 -21 1 -41 15 -59 37 -51 20 8 20 31 1 47 -8 7 -15 20 -15 30 0 14 12
19 58 24 31 4 72 10 90 13 25 4 32 2 32 -10 0 -22 71 -31 168 -22 82 7 257 29
512 64 214 29 654 51 711 36 16 -4 30 -2 33 4 5 7 49 11 117 11 73 0 109 4
109 11 0 8 -35 10 -112 8 l-113 -4 3 85 c1 47 7 119 13 160 10 65 15 79 43
102 27 24 40 27 99 28 38 0 67 4 67 10 0 6 -31 10 -74 10 -59 0 -75 3 -80 16
-4 11 -13 14 -27 11 -23 -6 -149 52 -224 103 -22 14 -79 48 -127 74 -48 25
-90 51 -93 56 -3 6 -18 10 -33 10 -15 0 -39 8 -55 18 -27 16 -28 20 -34 132
-12 197 -10 250 10 265 19 14 23 40 7 50 -5 3 -10 16 -10 28 0 22 2 22 147 22
449 1 593 5 593 17 0 8 -97 9 -392 3 -216 -5 -404 -8 -418 -9 -14 0 -168 3
-342 8 -212 5 -318 4 -318 -2 0 -12 162 -19 420 -18 l186 1 -1 -115 c0 -105 5
-178 21 -269 l5 -33 -28 20 c-15 11 -55 33 -88 49 -119 58 -300 192 -351 258
-28 37 -86 71 -103 61 -11 -7 -81 24 -81 36 0 4 -6 8 -13 8 -26 0 -204 98
-402 221 -33 20 -92 53 -131 72 -111 54 -166 88 -202 124 -39 39 -56 41 -80
11z m139 -93 c54 -30 115 -61 136 -70 21 -9 72 -37 113 -64 122 -77 181 -112
258 -154 39 -21 72 -41 72 -45 0 -4 9 -8 20 -9 34 -3 145 -67 148 -86 4 -19
-86 -162 -95 -153 -3 2 0 20 6 39 11 32 9 41 -20 96 -30 58 -50 74 -64 51 -3
-5 -19 -10 -36 -10 -16 0 -29 -4 -29 -9 0 -5 -35 -51 -77 -101 -43 -51 -93
-113 -112 -137 -18 -24 -36 -42 -38 -39 -7 7 46 105 92 172 23 33 45 70 49 81
4 12 13 27 21 33 19 16 19 40 1 40 -7 0 -48 -16 -90 -35 -43 -19 -83 -35 -91
-35 -8 0 -57 -23 -110 -51 -53 -28 -99 -48 -102 -46 -2 3 3 26 11 51 9 26 16
54 17 64 0 9 5 32 12 51 l12 34 110 -2 c61 -1 164 -4 230 -7 90 -5 117 -3 109
5 -7 8 -83 14 -225 17 -117 3 -216 7 -218 9 -2 3 1 10 6 17 9 12 43 109 43
122 0 12 -31 6 -55 -10 -14 -9 -34 -32 -46 -51 -12 -19 -39 -46 -61 -59 -38
-24 -49 -26 -189 -27 -82 -1 -149 1 -149 4 0 10 83 102 182 203 54 55 98 101
98 103 0 2 -8 3 -18 3 -21 0 -160 -140 -246 -247 -52 -65 -62 -73 -92 -73 -19
0 -34 3 -34 6 0 9 182 223 256 302 38 39 75 72 83 72 8 0 58 -25 112 -55z
m113 -227 c-27 -86 -31 -93 -57 -93 -14 0 -29 -3 -33 -7 -4 -5 5 -8 19 -8 15
0 27 -3 27 -6 0 -19 -55 -193 -67 -211 -8 -12 -12 -27 -8 -33 9 -15 41 -12 55
5 15 18 154 89 230 117 30 12 64 27 75 34 35 25 51 17 24 -12 -13 -14 -53 -82
-89 -152 l-65 -126 -146 3 c-97 2 -149 -1 -154 -8 -4 -8 38 -11 140 -11 81 0
145 -3 143 -7 -40 -83 -58 -130 -53 -141 9 -25 30 -6 33 31 2 20 7 37 11 37 4
0 25 -18 46 -40 21 -22 43 -40 47 -40 17 0 160 86 187 112 32 32 101 81 101
72 0 -3 -13 -24 -29 -47 -15 -23 -47 -78 -71 -122 -24 -44 -67 -112 -96 -152
-42 -57 -57 -70 -73 -66 -12 3 -21 11 -21 18 0 20 -52 95 -65 95 -11 0 -291
219 -320 250 -19 20 -231 183 -280 216 -91 60 -129 98 -120 120 4 10 8 28 9
39 1 17 9 21 49 23 47 3 57 -4 36 -25 -8 -8 -8 -25 1 -62 9 -39 19 -55 39 -65
50 -26 89 -28 146 -11 47 15 72 34 174 134 65 64 124 126 130 139 6 12 16 22
22 22 6 0 7 -9 3 -22z m-218 -165 c-56 -53 -140 -95 -176 -87 -79 17 -111 56
-93 111 l10 28 149 5 c82 3 151 1 153 -4 2 -4 -17 -28 -43 -53z m1524 -30 c0
-8 -4 -12 -8 -9 -20 12 -51 -96 -33 -117 11 -14 31 -157 31 -226 0 -43 0 -44
-19 -27 -13 12 -17 24 -13 36 9 25 2 121 -8 115 -13 -8 -22 46 -19 120 1 39 1
87 1 107 -1 27 3 38 16 41 20 4 52 -20 52 -40z m-800 -25 c29 -48 24 -57 -10
-18 -31 37 -36 50 -20 50 6 0 19 -15 30 -32z m205 -6 c3 -8 0 -19 -7 -23 -9
-6 -9 -13 2 -33 7 -14 10 -29 6 -33 -4 -4 -9 3 -13 15 -3 13 -13 22 -25 22
-17 0 -19 4 -13 23 4 12 7 29 8 38 2 20 33 13 42 -9z m-1361 -23 c10 -52 7
-259 -4 -259 -6 0 -10 33 -10 78 0 42 -3 107 -7 145 -4 43 -2 67 4 67 6 0 13
-14 17 -31z m1112 -18 c3 -14 8 -32 10 -39 6 -19 -33 -90 -79 -144 l-40 -48
-86 -2 -86 -2 79 -5 c73 -6 77 -7 60 -22 -11 -9 -32 -19 -47 -23 -29 -7 -102
8 -111 23 -3 5 25 43 62 85 37 43 88 103 114 134 71 85 112 99 124 43z m300 5
c10 -8 16 -17 13 -21 -11 -10 -59 6 -59 21 0 18 21 18 46 0z m-1240 -121 c60
-57 106 -106 104 -109 -3 -2 -59 -6 -125 -7 l-120 -3 -3 116 c-2 111 -2 116
17 111 11 -3 68 -52 127 -108z m1124 97 c0 -4 -13 -28 -28 -53 -15 -24 -56
-94 -90 -156 -35 -61 -69 -114 -77 -117 -8 -3 -15 -13 -15 -23 0 -10 -12 -36
-27 -58 -15 -22 -19 -34 -10 -26 22 17 21 10 -2 -36 -11 -21 -25 -51 -31 -67
-9 -25 -14 -28 -42 -22 -41 8 -42 10 -26 35 18 30 31 26 24 -6 -6 -24 -2 -21
22 15 17 25 28 52 25 62 -6 24 21 74 214 388 39 64 63 88 63 64z m52 -79 c9
-32 19 -77 22 -99 l6 -42 -85 0 c-47 0 -85 2 -85 5 0 9 114 193 120 193 3 0
13 -26 22 -57z m134 19 c66 -52 246 -158 261 -154 7 2 13 -4 13 -13 0 -8 5
-15 10 -15 18 0 10 -29 -10 -35 -25 -8 -45 -41 -30 -50 5 -3 10 1 10 9 0 9 9
16 20 16 46 0 10 -43 -52 -60 -32 -10 -43 1 -30 27 5 10 19 36 31 59 21 41 19
54 -5 54 -22 0 -294 177 -294 191 0 19 29 8 76 -29z m-306 18 c0 -19 -30 -84
-48 -103 -9 -10 -37 -32 -61 -49 l-44 -29 48 53 c26 29 57 72 68 96 20 40 37
55 37 32z m261 -182 c5 -67 11 -128 13 -134 2 -6 1 -16 -3 -23 -10 -15 -30
105 -38 219 -4 67 -3 83 7 73 7 -6 16 -61 21 -135z m85 84 c33 -21 75 -48 94
-60 l35 -22 -97 0 -98 0 0 38 c0 20 -3 47 -6 60 -9 31 5 28 72 -16z m-1146
-77 c7 -8 16 -12 21 -9 5 3 9 0 9 -6 0 -6 5 -8 10 -5 6 3 10 -3 10 -15 0 -12
5 -18 10 -15 6 3 10 1 10 -4 0 -6 3 -10 8 -8 4 1 8 -2 10 -8 7 -21 36 -46 49
-41 7 3 12 0 10 -6 -1 -7 8 -17 19 -22 24 -11 50 -46 35 -46 -19 0 -243 199
-225 200 6 0 17 -7 24 -15z m-63 -14 c18 -5 71 -44 120 -86 48 -43 120 -99
159 -126 39 -26 74 -55 77 -63 4 -9 13 -16 22 -16 9 0 39 -16 68 -35 28 -19
57 -35 64 -35 7 0 13 -4 13 -9 0 -5 -69 -8 -152 -8 -84 1 -213 0 -285 -2
l-133 -4 -62 53 c-35 29 -76 66 -91 82 -15 15 -38 28 -51 28 -21 0 -24 6 -30
53 -3 28 -6 78 -6 109 l0 57 113 4 c61 1 119 4 127 5 8 1 29 -2 47 -7z m-307
-55 c0 -30 3 -63 6 -73 5 -13 4 -15 -4 -8 -17 15 -28 135 -13 135 7 0 11 -20
11 -54z m1375 21 c7 -38 13 -227 7 -227 -2 0 -16 8 -30 19 -15 10 -61 35 -102
56 -73 36 -110 64 -110 83 0 5 11 29 25 54 l25 44 89 2 90 2 6 -33z m292 16
c2 -6 -20 -30 -49 -55 -29 -25 -73 -71 -98 -102 -25 -31 -48 -56 -51 -56 -14
0 -18 31 -7 49 8 13 8 37 0 91 -6 41 -9 76 -7 79 6 10 209 4 212 -6z m-883
-15 c10 -14 34 -25 73 -34 57 -11 57 -12 30 -23 -16 -6 -37 -11 -48 -11 -20 0
-89 64 -89 81 0 16 19 9 34 -13z m1066 7 c37 -19 39 -29 5 -21 -14 4 -25 2
-25 -3 0 -5 11 -16 25 -25 21 -14 35 -46 21 -46 -18 0 -39 17 -47 37 -7 20
-12 22 -28 13 -14 -7 -22 -7 -27 1 -7 12 13 29 35 29 7 0 11 6 7 15 -7 19 -2
19 34 0z m-180 -43 c0 -12 -164 -173 -191 -187 -12 -7 -17 -14 -10 -16 17 -6
-44 -69 -68 -69 -11 0 -23 5 -26 10 -3 6 -13 10 -22 10 -24 0 -133 51 -133 62
0 6 6 8 13 5 6 -3 32 -12 57 -22 25 -9 53 -21 63 -26 20 -11 32 -5 32 14 0 7
9 11 19 9 10 -2 15 1 12 6 -3 5 2 18 10 28 9 10 13 13 9 7 -9 -19 16 -16 45 5
14 9 58 52 99 95 70 72 91 88 91 69z m291 -129 c85 -47 178 -97 207 -110 51
-24 63 -50 16 -39 -13 4 -182 9 -376 11 -193 3 -354 7 -356 10 -3 3 5 5 17 5
42 0 157 70 276 169 27 22 53 41 56 41 4 0 76 -39 160 -87z m7 53 c137 -86
211 -137 218 -148 4 -7 -9 -3 -29 9 -20 12 -86 49 -146 83 -61 35 -108 66
-105 71 8 14 22 11 62 -15z m-263 -15 c-27 -26 -169 -121 -173 -116 -8 8 46
55 108 94 69 44 97 53 65 22z m-541 -20 c23 -16 48 -36 55 -45 12 -14 10 -16
-11 -16 -29 0 -85 35 -106 68 -13 20 -13 22 2 22 10 0 36 -13 60 -29z m-460
-60 c19 -20 25 -31 15 -31 -8 0 -34 24 -59 52 -37 44 -40 49 -15 31 17 -12 43
-35 59 -52z m1421 37 c14 -6 25 -15 25 -20 0 -5 4 -6 10 -3 11 7 106 -32 97
-41 -3 -3 -19 2 -36 11 -17 8 -31 14 -31 11 0 -9 150 -86 167 -86 15 0 16 -2
3 -10 -28 -18 -49 -10 -154 60 -119 80 -150 110 -81 78z m-841 -112 c57 -14
13 -20 -117 -17 -73 1 -134 5 -136 7 -2 2 1 16 7 31 6 15 16 40 22 56 l10 27
92 -49 c51 -26 106 -51 122 -55z m17 77 c42 -22 63 -43 44 -43 -13 0 -83 40
-94 54 -19 23 -6 20 50 -11z m-1111 -138 c176 -142 261 -215 250 -215 -17 0
-177 112 -229 160 -24 22 -46 40 -48 40 -12 0 -141 125 -137 132 6 9 33 -11
164 -117z m857 11 c-2 -6 -23 -13 -48 -16 -25 -3 -42 -9 -39 -15 3 -5 -8 -11
-24 -13 l-28 -4 21 31 c19 27 27 30 72 29 30 -1 48 -6 46 -12z m542 -6 c46 -5
87 -12 90 -16 3 -3 -68 -3 -159 0 -100 4 -157 3 -145 -3 13 -6 -35 -10 -140
-12 -88 -2 -162 -3 -164 -1 -3 1 0 7 5 12 12 12 138 15 218 5 43 -6 57 -5 52
4 -4 6 -34 11 -69 11 -45 0 -58 3 -47 11 17 11 221 5 359 -11z m496 6 c38 -1
87 1 109 5 40 7 86 -3 86 -19 0 -4 -30 -7 -67 -6 -65 2 -66 2 -18 -5 l50 -8
-70 -1 c-49 0 -64 2 -50 8 13 6 -48 9 -165 8 -164 -1 -324 12 -339 28 -3 3 84
2 194 -1 110 -4 231 -8 270 -9z m375 -18 c0 -4 -13 -8 -30 -8 -32 0 -33 1 -24
24 5 12 10 13 30 4 13 -6 24 -15 24 -20z m-1611 -62 c-9 -8 -11 -7 -6 6 3 10
2 20 -3 23 -6 4 -10 11 -10 16 0 6 5 7 10 4 6 -3 11 0 11 7 1 7 4 0 6 -16 3
-16 -1 -34 -8 -40z m-47 31 c-2 -10 2 -42 8 -71 7 -37 8 -67 1 -98 -6 -24 -11
-95 -12 -156 -2 -86 -5 -112 -16 -112 -17 0 -17 -17 0 -23 6 -2 9 -7 6 -11 -4
-4 -21 8 -37 26 -32 33 -36 52 -6 28 13 -11 17 -11 24 -1 13 22 0 44 -48 84
-146 120 -296 239 -359 286 -40 30 -73 57 -73 60 0 3 116 6 258 6 243 0 257
-1 254 -18z m1248 -7 c69 0 187 3 264 7 134 6 138 5 128 -13 -5 -10 -12 -60
-16 -110 -6 -80 -29 -200 -41 -212 -2 -2 -106 -12 -232 -22 -125 -10 -284 -23
-353 -29 -69 -6 -199 -16 -290 -21 -91 -5 -208 -14 -260 -20 -52 -5 -138 -14
-190 -20 -52 -5 -117 -13 -144 -16 -43 -6 -48 -5 -36 7 8 9 40 15 89 17 42 2
155 14 251 27 96 13 211 26 255 29 44 4 112 9 150 12 39 4 138 10 220 14 83 4
204 16 270 25 65 9 139 14 165 11 42 -6 44 -5 26 9 -25 19 -53 18 -246 -4 -85
-10 -202 -19 -258 -20 -57 -1 -149 -6 -205 -12 -56 -5 -147 -12 -202 -16 -55
-3 -102 -9 -105 -12 -11 -15 -172 -35 -282 -36 l-118 -1 0 31 c0 17 5 36 12
43 8 8 8 15 -1 26 -10 12 -10 35 0 113 7 54 11 117 11 141 l-2 42 73 1 c39 1
176 5 302 9 127 4 322 5 435 3 113 -2 261 -4 330 -3z m433 -26 c0 -5 -6 -67
-12 -139 -6 -72 -16 -131 -21 -133 -6 -2 -10 -10 -10 -18 0 -8 -5 -14 -11 -14
-7 0 -9 10 -5 28 4 15 14 87 23 160 11 81 21 131 28 128 5 -2 9 -7 8 -12z
m-1588 -4 c8 -13 -6 -110 -16 -110 -5 0 -9 27 -9 60 0 55 10 75 25 50z m-30
-209 c-4 -47 -6 -119 -5 -158 1 -59 -2 -73 -14 -73 -18 0 -30 16 -21 30 3 5 8
54 10 107 6 133 15 194 27 187 7 -5 8 -36 3 -93z m-215 -52 c36 -33 60 -59 54
-57 -16 4 -139 118 -128 118 5 0 38 -28 74 -61z m1058 -125 c-8 -7 -374 -51
-504 -60 -67 -4 -103 -3 -108 4 -4 7 13 13 46 16 93 10 401 36 468 39 36 2 74
4 84 5 11 1 17 -1 14 -4z"/>
<path d="M1210 270 c-19 -12 286 -12 315 0 12 5 -41 9 -140 9 -88 0 -167 -4
-175 -9z"/>
<path d="M230 1869 c-124 -4 -226 -7 -227 -8 -2 0 -3 -5 -3 -10 0 -6 64 -8
163 -5 371 10 489 16 476 25 -8 5 -52 8 -99 6 -47 -1 -186 -5 -310 -8z"/>
<path d="M6 1462 c-20 -19 6 -23 117 -16 179 10 196 23 30 22 -78 0 -144 -3
-147 -6z"/>
<path d="M2275 1050 c-4 -7 118 -10 359 -10 237 0 366 4 366 10 0 6 -126 10
-359 10 -229 0 -362 -4 -366 -10z"/>
</g>
</svg>
